<svg xmlns="http://www.w3.org/2000/svg" viewBox="0 0 512 510">
  <rect width="512" height="510" rx="116" fill="#fff"/>
  <path fill="#4D6BFE" d="M441 139c-4-2-6 2-8 4-7 8-14 13-24 12-13-1-24 3-34 13-2-12-9-20-20-24-12-5-16-11-19-23-1-3-2-5-5-5s-4 2-6 4c-5 9-7 19-6 29 0 23 10 41 29 54 2 1 3 3 2 5l-5 13c-1 3-2 3-5 2-10-4-19-11-27-18-17-17-33-36-52-47-16-15 2-27 6-29 4-1 1-6-12-6-14 0-26 5-42 11-17-3-33-3-49-1-30 3-54 17-71 41-21 29-26 61-20 96 6 36 25 66 53 89 29 24 63 36 101 34 24-2 50-5 79-30 8 4 15 5 28 6 10 1 20 0 27-2 12-2 11-13 7-15-34-16-27-9-34-15 17-20 43-42 53-110 1-6 0-9 0-14 0-3 1-4 4-4 8-1 17-3 24-7 22-12 31-32 33-56 0-3 0-7-4-9ZM249 352c-33-26-49-34-55-34-6 0-5 7-4 12 2 5 3 8 6 12 2 3 3 7-2 9-10 7-29-2-29-3-21-12-39-29-52-52-12-22-19-45-21-70 0-6 2-8 8-9 8-2 16-2 24-1 34 5 62 20 86 44 14 13 24 30 35 45 11 17 24 33 39 46 6 5 10 8 14 11-13 1-34 2-49-10Zm16-103c1-2 3-3 5-3 3 0 5 2 5 5s-2 5-5 5c-3 0-5-2-5-5v-2Zm47 27c-3 1-5 2-8 2-5 0-10-2-12-4-5-4-8-6-9-12-1-3 0-7 0-9 1-5 0-8-3-11s-7-3-11-3c-2 0-3-1-4-2-2-1-3-3-2-5 1-1 3-3 4-4 5-3 12-2 18 1 5 2 10 6 15 12 6 7 7 9 11 14 3 4 5 9 7 13 1 3 0 5-2 7l-4 1Z"/>
</svg>
